<svg width="230" height="72" viewBox="0 0 230 72" fill="none" xmlns="http://www.w3.org/2000/svg">
<path d="M9.95219 37V23.8522H17.9383C23.8791 23.8522 27.0444 19.9078 27.0444 13.4313C27.0444 6.95477 23.8791 3.01043 17.9383 3.01043H3.86523V37H9.95219ZM9.95219 8.31825H17.3052C19.3991 8.31825 20.6652 9.38956 20.6652 11.9217V14.9409C20.6652 17.473 19.3991 18.5443 17.3052 18.5443H9.95219V8.31825Z" fill="#181C24"/>
<path d="M51.7878 37V32.2765H49.5478V19.9565C49.5478 14.0643 46.3826 10.9965 40.0522 10.9965C35.6209 10.9965 32.7965 12.9443 30.9461 15.8661L34.4035 18.9826C35.6209 16.9374 37.1791 15.72 39.5652 15.72C42.4383 15.72 43.6557 17.1322 43.6557 20.1026V22.2939H39.7113C33.527 22.2939 30.0696 24.8748 30.0696 30.1826C30.0696 34.8574 32.4557 37.5843 37.0818 37.5843C40.4418 37.5843 42.8765 35.7339 43.5096 32.6661H44.0939C44.24 35.5878 45.6035 37 48.2331 37H51.7878ZM39.3218 33.2504C37.2278 33.2504 36.0105 32.3252 36.0105 30.1826V29.1113C36.0105 27.0661 37.3252 25.9461 40.1009 25.9461H43.6557V29.3061C43.6557 31.7409 41.7078 33.2504 39.3218 33.2504Z" fill="#181C24"/>
<path d="M67.7022 37V32.2765H63.5144V16.3043H68.0918V11.5809H63.5144V4.66608H58.2065V9.14608C58.2065 10.8017 57.7196 11.5809 56.0152 11.5809H54.2622V16.3043H57.6222V31.3026C57.6222 35.247 59.3752 37 63.417 37H67.7022Z" fill="#181C24"/>
<path d="M75.5901 7.58782C78.0249 7.58782 79.0962 6.41912 79.0962 4.61738V3.64347C79.0962 1.84173 78.0249 0.673035 75.5901 0.673035C73.1553 0.673035 72.084 1.84173 72.084 3.64347V4.61738C72.084 6.41912 73.1553 7.58782 75.5901 7.58782ZM72.6684 37H78.5606V11.5809H72.6684V37Z" fill="#181C24"/>
<path d="M94.5304 37.5843C98.9617 37.5843 102.176 35.6365 104.075 32.6661L100.861 29.3061C99.4974 31.5461 97.647 32.8122 94.8713 32.8122C91.6087 32.8122 89.5635 30.7183 89.5635 27.3583V25.7026H104.61V24.2904C104.61 15.1843 100.763 10.9965 93.9948 10.9965C87.2261 10.9965 83.3792 15.1843 83.3792 24.2904C83.3792 33.3478 87.8591 37.5843 94.5304 37.5843ZM93.9948 15.5252C96.9165 15.5252 98.4261 17.2783 98.4261 20.7843V22.0504H89.5635V20.7843C89.5635 17.2783 91.0731 15.5252 93.9948 15.5252Z" fill="#181C24"/>
<path d="M115.415 37V19.9565C115.415 17.4243 117.314 15.9635 119.7 15.9635C122.233 15.9635 123.401 17.6191 123.401 20.9304V37H129.293V19.9078C129.293 14.2104 126.713 10.9965 122.184 10.9965C119.165 10.9965 117.12 12.6035 116.097 15.8174H115.415V11.5809H109.523V37H115.415Z" fill="#181C24"/>
<path d="M146.738 37V32.2765H142.55V16.3043H147.127V11.5809H142.55V4.66608H137.242V9.14608C137.242 10.8017 136.755 11.5809 135.051 11.5809H133.298V16.3043H136.658V31.3026C136.658 35.247 138.411 37 142.452 37H146.738Z" fill="#181C24"/>
<path d="M160.518 37V32.2765H157.596V0.96521H151.704V31.3513C151.704 35.1983 153.36 37 157.45 37H160.518Z" fill="#00A3FF"/>
<path d="M174.327 37.5843C178.758 37.5843 181.972 35.6365 183.871 32.6661L180.657 29.3061C179.294 31.5461 177.444 32.8122 174.668 32.8122C171.405 32.8122 169.36 30.7183 169.36 27.3583V25.7026H184.407V24.2904C184.407 15.1843 180.56 10.9965 173.791 10.9965C167.023 10.9965 163.176 15.1843 163.176 24.2904C163.176 33.3478 167.656 37.5843 174.327 37.5843ZM173.791 15.5252C176.713 15.5252 178.223 17.2783 178.223 20.7843V22.0504H169.36V20.7843C169.36 17.2783 170.87 15.5252 173.791 15.5252Z" fill="#00A3FF"/>
<path d="M197.013 37.5843C203.003 37.5843 206.412 34.5165 206.412 29.2574C206.412 25.1183 204.269 22.927 198.961 21.953L196.527 21.5148C194.579 21.1739 193.702 20.3948 193.702 18.6904C193.702 16.6452 194.871 15.6226 197.111 15.6226C199.4 15.6226 201.25 16.6939 202.565 18.3009L206.022 14.8435C203.88 12.3113 201.055 10.9965 197.111 10.9965C191.413 10.9965 188.151 13.6261 188.151 18.9339C188.151 23.3652 190.44 25.5565 195.747 26.5304L198.133 26.9687C200.081 27.3096 200.812 28.2348 200.812 29.8417C200.812 31.887 199.497 32.9583 197.111 32.9583C194.481 32.9583 192.485 31.7896 190.878 29.5009L187.274 33.007C189.66 36.0261 192.826 37.5843 197.013 37.5843Z" fill="#00A3FF"/>
<path d="M218.461 37.5843C224.45 37.5843 227.859 34.5165 227.859 29.2574C227.859 25.1183 225.716 22.927 220.408 21.953L217.974 21.5148C216.026 21.1739 215.149 20.3948 215.149 18.6904C215.149 16.6452 216.318 15.6226 218.558 15.6226C220.847 15.6226 222.697 16.6939 224.012 18.3009L227.469 14.8435C225.327 12.3113 222.502 10.9965 218.558 10.9965C212.861 10.9965 209.598 13.6261 209.598 18.9339C209.598 23.3652 211.887 25.5565 217.194 26.5304L219.581 26.9687C221.528 27.3096 222.259 28.2348 222.259 29.8417C222.259 31.887 220.944 32.9583 218.558 32.9583C215.928 32.9583 213.932 31.7896 212.325 29.5009L208.721 33.007C211.107 36.0261 214.273 37.5843 218.461 37.5843Z" fill="#00A3FF"/>
<path d="M125.646 62.5217H130.959C132.676 62.5217 133.863 61.1522 133.863 58.833C133.863 56.6052 132.402 55.9295 131.507 55.9295V55.7469C132.384 55.6739 133.461 55.0895 133.461 53.0626C133.461 50.853 132.384 49.7756 130.466 49.7756H125.646V62.5217ZM127.106 56.5687H130.521C131.672 56.5687 132.292 57.1713 132.292 58.4861V59.3261C132.292 60.6409 131.672 61.2435 130.521 61.2435H127.106V56.5687ZM127.106 51.0539H130.284C131.325 51.0539 131.909 51.5835 131.909 52.7522V53.5922C131.909 54.7609 131.325 55.2904 130.284 55.2904H127.106V51.0539Z" fill="#181C24"/>
<path d="M164.752 62.5217V61.2435H159.164V56.7148H164.405V55.4365H159.164V51.0539H164.752V49.7756H157.703V62.5217H164.752Z" fill="#181C24"/>
<path d="M196.143 51.0539V49.7756H187.487V51.0539H191.085V62.5217H192.545V51.0539H196.143Z" fill="#181C24"/>
<path d="M226.943 62.5217L222.944 49.7756H221.118L217.137 62.5217H218.598L219.73 58.7052H224.314L225.446 62.5217H226.943ZM223.985 57.5H220.077L221.52 52.6609L221.922 51.0722H222.104L222.506 52.6609L223.985 57.5Z" fill="#181C24"/>
</svg>
